<svg xmlns="http://www.w3.org/2000/svg" viewBox="0 0 169.21 141.79"><defs><style>.cls-1,.cls-2{fill:#8d05f8;}.cls-2{stroke:#8d05f8;stroke-miterlimit:10;}</style></defs><title>Asset 2</title><g id="Layer_2" data-name="Layer 2"><g id="Layer_1-2" data-name="Layer 1"><path class="cls-1" d="M150.11,21.79a13.12,13.12,0,0,1,13.1,13.1V96a13.49,13.49,0,0,1-3.94,7.24c-2.39,2.07-5.7,2.55-17.67,2.55h-5.76l-2.61,0h-19l-5.55,0-.41,5.54c-.94,12.85-4.19,20.53-6.15,23.45-2.19-3-5.52-10.88-6.9-22.71l-.64-5.44-5.47.14c-8.92.21-16.92.33-23.78.33-24,0-29.77-1.39-31-1.83l-.84-.69-.19,0a13,13,0,0,1-1.38-3.65l0-.16-.05-.17a13,13,0,0,1-.58-3.89V34.89A13.11,13.11,0,0,1,44.3,21.79H150.11m0-6H44.3a19.1,19.1,0,0,0-19.09,19.1V96.7a19.37,19.37,0,0,0,.85,5.68h0c1.82,7.27,4.74,7.82,4.74,7.82,1.92,1.6,10.37,2.93,34.48,2.93,6.7,0,14.61-.11,23.93-.34,2,17.12,8.07,29,13,29h0c4.91-.08,10.7-12.34,12-30h19l8.39,0c12.59,0,17.46-.42,21.61-4,2.21-1.92,4.74-5.21,6-11.09V34.89a19.1,19.1,0,0,0-19.1-19.1Z"/><rect class="cls-2" x="1.21" y="0.79" width="8.59" height="75.5" rx="4.29"/><rect class="cls-2" x="51.21" y="-50.21" width="8.59" height="110" rx="4.29" transform="translate(50.71 60.29) rotate(-90)"/></g></g></svg>